<svg width="1250" height="1248" viewBox="0 0 1250 1248" fill="none" xmlns="http://www.w3.org/2000/svg">
<rect width="1247.37" height="1247.37" fill="black"/>
<path d="M623.683 1201.73C955.532 1201.73 1224.55 932.714 1224.55 600.865C1224.55 269.017 955.532 0 623.683 0C291.834 0 22.8177 269.017 22.8177 600.865C22.8177 932.714 291.834 1201.73 623.683 1201.73Z" fill="black"/>
<path d="M781.352 253.756L737.495 217.3L696.161 199.067L669.23 233.067L776.512 340.349L776.954 339.907L774.882 380.413L566.605 172.136L464.312 246.265L465.158 558.658L525.25 666.15L492.455 660.909L610.373 778.831L609.215 794.595L444.337 821.142L419.306 984.503L737.495 1248H1249.27C1249.27 1248 1249.27 1100.95 1249.27 794.595L783.172 218.178L781.352 253.756Z" fill="#F22613"/>
<path d="M533.751 1035.64C454.582 1040.96 388.98 975.359 394.306 896.188C398.942 827.291 457.547 774.433 526.599 774.433H592.134V685.689H655.506V774.433H832.258V837.805H655.506V903.34C655.506 972.395 602.651 1031 533.751 1035.64ZM524.755 837.808C486.166 837.808 455.051 870.416 457.512 909.523C459.622 943.044 486.901 970.32 520.421 972.43C559.529 974.894 592.134 943.778 592.134 905.189V837.808H524.755V837.808Z" fill="white"/>
<path d="M655.573 685.689H623.887V990.377C643.61 967.473 655.573 937.712 655.573 905.189V837.808H832.328V774.436H655.573V685.689Z" fill="white"/>
<path d="M876.039 892.638C924.451 892.638 963.696 853.393 963.696 804.981C963.696 756.569 924.451 717.323 876.039 717.323C827.627 717.323 788.381 756.569 788.381 804.981C788.381 853.393 827.627 892.638 876.039 892.638Z" fill="white"/>
<path d="M623.755 717.471C523.813 717.471 442.503 636.158 442.503 536.216H505.875C505.875 601.218 558.756 654.096 623.755 654.096C688.758 654.096 741.639 601.218 741.639 536.216H805.011C805.011 636.158 723.701 717.471 623.755 717.471V717.471Z" fill="white" fill-opacity="0.98"/>
<path d="M623.887 654.096V717.471C723.832 717.471 805.142 636.158 805.142 536.216H741.77C741.77 601.215 688.889 654.096 623.887 654.096V654.096Z" fill="white"/>
<path d="M789.351 536.223H754.145V247.075L701.913 223.134L716.583 191.129L789.351 224.481V536.223Z" fill="white"/>
<path d="M491.426 536.223H456.216V224.481L528.985 191.129L543.655 223.134L491.426 247.075V536.223Z" fill="white"/>
<path d="M705.995 252.786C729.791 252.786 749.082 233.496 749.082 209.699C749.082 185.903 729.791 166.612 705.995 166.612C682.198 166.612 662.908 185.903 662.908 209.699C662.908 233.496 682.198 252.786 705.995 252.786Z" fill="white"/>
<path d="M542.545 252.786C566.341 252.786 585.632 233.496 585.632 209.699C585.632 185.903 566.341 166.612 542.545 166.612C518.748 166.612 499.458 185.903 499.458 209.699C499.458 233.496 518.748 252.786 542.545 252.786Z" fill="white"/>
</svg>
